<svg width="40" height="40" viewBox="0 0 40 40" fill="none" xmlns="http://www.w3.org/2000/svg">
<path d="M27.3745 7.67515L29.0245 6.02516C30.3915 4.65828 32.6077 4.65828 33.9745 6.02516C35.3413 7.39206 35.3413 9.60821 33.9745 10.9751L32.3245 12.6251M27.3745 7.67515L16.2756 18.774C15.4298 19.62 14.8297 20.6797 14.5396 21.8402L13.333 26.6667L18.1595 25.46C19.32 25.17 20.3797 24.5698 21.2257 23.724L32.3245 12.6251M27.3745 7.67515L32.3245 12.6251" stroke="white" stroke-width="2.5" stroke-linejoin="round"/>
<path d="M31.6665 22.5007C31.6665 27.9798 31.6665 30.7193 30.1533 32.5633C29.8763 32.9008 29.5668 33.2103 29.2292 33.4873C27.3853 35.0006 24.6457 35.0007 19.1665 35.0007H18.3333C12.0479 35.0007 8.90527 35.0006 6.95265 33.048C5.00005 31.0955 5 27.9527 5 21.6673V20.834C5 15.3549 5 12.6153 6.51323 10.7714C6.79028 10.4338 7.09983 10.1243 7.4374 9.84722C9.28132 8.33398 12.0209 8.33398 17.5 8.33398" stroke="white" stroke-width="2.5" stroke-linecap="round" stroke-linejoin="round"/>
</svg>
